<?xml version="1.0" encoding="UTF-8" standalone="no"?>
<svg
   height="24"
   viewBox="0 -960 960 960"
   width="24"
   version="1.1"
   id="svg1"
   sodipodi:docname="repeat_time.svg"
   inkscape:version="1.3.2 (091e20e, 2023-11-25)"
   xmlns:inkscape="http://www.inkscape.org/namespaces/inkscape"
   xmlns:sodipodi="http://sodipodi.sourceforge.net/DTD/sodipodi-0.dtd"
   xmlns="http://www.w3.org/2000/svg"
   xmlns:svg="http://www.w3.org/2000/svg">
  <defs
     id="defs1" />
  <sodipodi:namedview
     id="namedview1"
     pagecolor="#ffffff"
     bordercolor="#111111"
     borderopacity="1"
     inkscape:showpageshadow="0"
     inkscape:pageopacity="0"
     inkscape:pagecheckerboard="1"
     inkscape:deskcolor="#d1d1d1"
     showgrid="false"
     inkscape:zoom="23.864338"
     inkscape:cx="10.413027"
     inkscape:cy="12.801528"
     inkscape:window-width="1568"
     inkscape:window-height="1062"
     inkscape:window-x="343"
     inkscape:window-y="162"
     inkscape:window-maximized="0"
     inkscape:current-layer="svg1" />
  <path
     d="m 227.9277,-840.81326 v -34.37831 h 103.13491 v 34.37831 z m 34.37831,189.08064 h 34.3783 v -103.13491 h -34.3783 z m 17.18915,137.51319 q -31.79996,0 -59.94717,-12.24726 -28.14721,-12.24726 -49.20395,-33.30397 -21.0567,-21.05672 -33.30394,-49.20396 -12.24729,-28.14725 -12.24729,-59.94717 0,-31.79991 12.24729,-59.94713 12.24726,-28.14725 33.30394,-49.20396 21.05674,-21.05671 49.20395,-33.30397 28.14721,-12.24726 59.94717,-12.24726 26.64319,0 51.13771,8.59457 24.49456,8.59455 45.98098,24.92427 l 24.0648,-24.06483 24.06482,24.06483 -24.06482,24.06481 q 16.32969,21.48643 24.92426,45.98096 8.59459,24.49455 8.59459,51.13771 0,31.79992 -12.24729,59.94717 -12.24726,28.14724 -33.30395,49.20396 -21.05672,21.05671 -49.20394,33.30397 -28.14722,12.24726 -59.94716,12.24726 z m 0,-34.3783 q 49.84852,0 85.0863,-35.23777 35.23775,-35.23773 35.23775,-85.08629 0,-49.8485 -35.23775,-85.08628 -35.23778,-35.23774 -85.0863,-35.23774 -49.84853,0 -85.0863,35.23774 -35.23774,35.23778 -35.23774,85.08628 0,49.84856 35.23774,85.08629 35.23777,35.23777 85.0863,35.23777 z m 0,-120.32406 z"
     id="path1-6"
     style="stroke:#1a1a1a;stroke-width:12.8;stroke-dasharray:none" />
  <path
     id="path1-1"
     d="M 679.98438,-880 623.96876,-822.0313 686,-760 H 488.10938 v 80 H 686 l -62.03124,62.0312 56.01562,57.9688 160,-160 z m 0,440 v 160 H 273.96876 L 336,-342.0312 279.98438,-400 l -160,160 160,160 L 336,-137.96875 273.96876,-200 h 486.01562 v -240 z" />
</svg>
